<mxfile host="Electron" agent="Mozilla/5.0 (Windows NT 10.0; Win64; x64) AppleWebKit/537.36 (KHTML, like Gecko) draw.io/24.7.8 Chrome/128.0.6613.36 Electron/32.0.1 Safari/537.36" version="24.7.8" pages="2">
  <diagram name="findXandFindIndex" id="452YNosFd5SzZ69fyC9r">
    <mxGraphModel dx="1050" dy="1471" grid="1" gridSize="10" guides="1" tooltips="1" connect="1" arrows="1" fold="1" page="1" pageScale="1" pageWidth="1100" pageHeight="850" math="0" shadow="0">
      <root>
        <mxCell id="0" />
        <mxCell id="1" parent="0" />
        <mxCell id="7BMwBDlI-2P34CNt6knJ-10" style="edgeStyle=orthogonalEdgeStyle;rounded=0;orthogonalLoop=1;jettySize=auto;html=1;exitX=0.5;exitY=1;exitDx=0;exitDy=0;entryX=0;entryY=0.5;entryDx=0;entryDy=0;" parent="1" source="7BMwBDlI-2P34CNt6knJ-1" target="7BMwBDlI-2P34CNt6knJ-5" edge="1">
          <mxGeometry relative="1" as="geometry" />
        </mxCell>
        <mxCell id="7BMwBDlI-2P34CNt6knJ-27" value="BigLetter" style="edgeLabel;html=1;align=center;verticalAlign=middle;resizable=0;points=[];" parent="7BMwBDlI-2P34CNt6knJ-10" vertex="1" connectable="0">
          <mxGeometry x="0.4816" relative="1" as="geometry">
            <mxPoint x="17" as="offset" />
          </mxGeometry>
        </mxCell>
        <mxCell id="7BMwBDlI-2P34CNt6knJ-35" style="edgeStyle=orthogonalEdgeStyle;rounded=0;orthogonalLoop=1;jettySize=auto;html=1;exitX=0.5;exitY=1;exitDx=0;exitDy=0;" parent="1" source="7BMwBDlI-2P34CNt6knJ-1" edge="1">
          <mxGeometry relative="1" as="geometry">
            <mxPoint x="360" y="300" as="targetPoint" />
            <Array as="points">
              <mxPoint x="70" y="300" />
            </Array>
          </mxGeometry>
        </mxCell>
        <mxCell id="7BMwBDlI-2P34CNt6knJ-37" style="edgeStyle=orthogonalEdgeStyle;rounded=0;orthogonalLoop=1;jettySize=auto;html=1;exitX=0.5;exitY=1;exitDx=0;exitDy=0;entryX=0;entryY=0.5;entryDx=0;entryDy=0;" parent="1" source="7BMwBDlI-2P34CNt6knJ-1" target="7BMwBDlI-2P34CNt6knJ-36" edge="1">
          <mxGeometry relative="1" as="geometry" />
        </mxCell>
        <mxCell id="7BMwBDlI-2P34CNt6knJ-44" value="Separator(except &#39;(&#39;)" style="edgeLabel;html=1;align=center;verticalAlign=middle;resizable=0;points=[];" parent="7BMwBDlI-2P34CNt6knJ-37" vertex="1" connectable="0">
          <mxGeometry x="0.6615" y="1" relative="1" as="geometry">
            <mxPoint x="13" y="-9" as="offset" />
          </mxGeometry>
        </mxCell>
        <mxCell id="7BMwBDlI-2P34CNt6knJ-46" style="edgeStyle=orthogonalEdgeStyle;rounded=0;orthogonalLoop=1;jettySize=auto;html=1;exitX=0.5;exitY=1;exitDx=0;exitDy=0;entryX=0;entryY=0.5;entryDx=0;entryDy=0;" parent="1" source="7BMwBDlI-2P34CNt6knJ-1" target="7BMwBDlI-2P34CNt6knJ-45" edge="1">
          <mxGeometry relative="1" as="geometry" />
        </mxCell>
        <mxCell id="7BMwBDlI-2P34CNt6knJ-47" value="ProhibitedSymbol" style="edgeLabel;html=1;align=center;verticalAlign=middle;resizable=0;points=[];" parent="7BMwBDlI-2P34CNt6knJ-46" vertex="1" connectable="0">
          <mxGeometry x="0.7585" y="-2" relative="1" as="geometry">
            <mxPoint as="offset" />
          </mxGeometry>
        </mxCell>
        <mxCell id="7BMwBDlI-2P34CNt6knJ-50" style="edgeStyle=orthogonalEdgeStyle;rounded=0;orthogonalLoop=1;jettySize=auto;html=1;exitX=0.5;exitY=1;exitDx=0;exitDy=0;entryX=0;entryY=0.5;entryDx=0;entryDy=0;" parent="1" source="7BMwBDlI-2P34CNt6knJ-1" target="7BMwBDlI-2P34CNt6knJ-49" edge="1">
          <mxGeometry relative="1" as="geometry" />
        </mxCell>
        <mxCell id="7BMwBDlI-2P34CNt6knJ-51" value="eof" style="edgeLabel;html=1;align=center;verticalAlign=middle;resizable=0;points=[];" parent="7BMwBDlI-2P34CNt6knJ-50" vertex="1" connectable="0">
          <mxGeometry x="0.717" y="1" relative="1" as="geometry">
            <mxPoint y="1" as="offset" />
          </mxGeometry>
        </mxCell>
        <mxCell id="7BMwBDlI-2P34CNt6knJ-53" style="edgeStyle=orthogonalEdgeStyle;rounded=0;orthogonalLoop=1;jettySize=auto;html=1;entryX=0;entryY=0.5;entryDx=0;entryDy=0;" parent="1" source="7BMwBDlI-2P34CNt6knJ-1" target="7BMwBDlI-2P34CNt6knJ-4" edge="1">
          <mxGeometry relative="1" as="geometry">
            <Array as="points">
              <mxPoint x="70" y="600" />
              <mxPoint x="400" y="600" />
              <mxPoint x="400" y="140" />
            </Array>
          </mxGeometry>
        </mxCell>
        <mxCell id="7BMwBDlI-2P34CNt6knJ-55" value="&#39;(&#39;" style="edgeLabel;html=1;align=center;verticalAlign=middle;resizable=0;points=[];" parent="7BMwBDlI-2P34CNt6knJ-53" vertex="1" connectable="0">
          <mxGeometry x="0.962" y="1" relative="1" as="geometry">
            <mxPoint as="offset" />
          </mxGeometry>
        </mxCell>
        <mxCell id="7BMwBDlI-2P34CNt6knJ-1" value="" style="ellipse;whiteSpace=wrap;html=1;" parent="1" vertex="1">
          <mxGeometry x="62.5" y="60" width="15" height="10" as="geometry" />
        </mxCell>
        <mxCell id="7BMwBDlI-2P34CNt6knJ-21" style="edgeStyle=orthogonalEdgeStyle;rounded=0;orthogonalLoop=1;jettySize=auto;html=1;exitX=1;exitY=1;exitDx=0;exitDy=0;entryX=0;entryY=0.5;entryDx=0;entryDy=0;" parent="1" source="7BMwBDlI-2P34CNt6knJ-3" target="7BMwBDlI-2P34CNt6knJ-14" edge="1">
          <mxGeometry relative="1" as="geometry" />
        </mxCell>
        <mxCell id="7BMwBDlI-2P34CNt6knJ-28" value="Other" style="edgeLabel;html=1;align=center;verticalAlign=middle;resizable=0;points=[];" parent="7BMwBDlI-2P34CNt6knJ-21" vertex="1" connectable="0">
          <mxGeometry x="-0.4668" relative="1" as="geometry">
            <mxPoint as="offset" />
          </mxGeometry>
        </mxCell>
        <mxCell id="7BMwBDlI-2P34CNt6knJ-3" value="CNS" style="ellipse;whiteSpace=wrap;html=1;" parent="1" vertex="1">
          <mxGeometry x="140" y="120" width="60" height="40" as="geometry" />
        </mxCell>
        <mxCell id="7BMwBDlI-2P34CNt6knJ-58" style="edgeStyle=orthogonalEdgeStyle;rounded=0;orthogonalLoop=1;jettySize=auto;html=1;exitX=1;exitY=0.5;exitDx=0;exitDy=0;" parent="1" source="7BMwBDlI-2P34CNt6knJ-4" target="7BMwBDlI-2P34CNt6knJ-56" edge="1">
          <mxGeometry relative="1" as="geometry" />
        </mxCell>
        <mxCell id="7BMwBDlI-2P34CNt6knJ-60" value="&#39;*&#39;" style="edgeLabel;html=1;align=center;verticalAlign=middle;resizable=0;points=[];" parent="7BMwBDlI-2P34CNt6knJ-58" vertex="1" connectable="0">
          <mxGeometry x="0.25" y="1" relative="1" as="geometry">
            <mxPoint as="offset" />
          </mxGeometry>
        </mxCell>
        <mxCell id="7BMwBDlI-2P34CNt6knJ-59" style="edgeStyle=orthogonalEdgeStyle;rounded=0;orthogonalLoop=1;jettySize=auto;html=1;exitX=1;exitY=0.5;exitDx=0;exitDy=0;entryX=0;entryY=0.5;entryDx=0;entryDy=0;" parent="1" source="7BMwBDlI-2P34CNt6knJ-4" target="7BMwBDlI-2P34CNt6knJ-57" edge="1">
          <mxGeometry relative="1" as="geometry" />
        </mxCell>
        <mxCell id="7BMwBDlI-2P34CNt6knJ-62" value="&#39;$&#39;" style="edgeLabel;html=1;align=center;verticalAlign=middle;resizable=0;points=[];" parent="7BMwBDlI-2P34CNt6knJ-59" vertex="1" connectable="0">
          <mxGeometry x="0.7885" y="1" relative="1" as="geometry">
            <mxPoint as="offset" />
          </mxGeometry>
        </mxCell>
        <mxCell id="7BMwBDlI-2P34CNt6knJ-4" value="BCA" style="ellipse;whiteSpace=wrap;html=1;" parent="1" vertex="1">
          <mxGeometry x="440" y="120" width="60" height="40" as="geometry" />
        </mxCell>
        <mxCell id="7BMwBDlI-2P34CNt6knJ-22" style="edgeStyle=orthogonalEdgeStyle;rounded=0;orthogonalLoop=1;jettySize=auto;html=1;exitX=0.5;exitY=1;exitDx=0;exitDy=0;entryX=0;entryY=0.5;entryDx=0;entryDy=0;" parent="1" source="7BMwBDlI-2P34CNt6knJ-5" target="7BMwBDlI-2P34CNt6knJ-17" edge="1">
          <mxGeometry relative="1" as="geometry">
            <Array as="points">
              <mxPoint x="170" y="260" />
              <mxPoint x="230" y="260" />
              <mxPoint x="230" y="230" />
            </Array>
          </mxGeometry>
        </mxCell>
        <mxCell id="7BMwBDlI-2P34CNt6knJ-29" value="Other" style="edgeLabel;html=1;align=center;verticalAlign=middle;resizable=0;points=[];" parent="7BMwBDlI-2P34CNt6knJ-22" vertex="1" connectable="0">
          <mxGeometry x="-0.4262" y="-1" relative="1" as="geometry">
            <mxPoint as="offset" />
          </mxGeometry>
        </mxCell>
        <mxCell id="7BMwBDlI-2P34CNt6knJ-5" value="IDN" style="ellipse;whiteSpace=wrap;html=1;" parent="1" vertex="1">
          <mxGeometry x="140" y="209.97" width="60" height="40" as="geometry" />
        </mxCell>
        <mxCell id="7BMwBDlI-2P34CNt6knJ-9" style="edgeStyle=orthogonalEdgeStyle;rounded=0;orthogonalLoop=1;jettySize=auto;html=1;entryX=0.01;entryY=0.608;entryDx=0;entryDy=0;entryPerimeter=0;" parent="1" source="7BMwBDlI-2P34CNt6knJ-1" target="7BMwBDlI-2P34CNt6knJ-3" edge="1">
          <mxGeometry relative="1" as="geometry">
            <Array as="points">
              <mxPoint x="70" y="144" />
            </Array>
          </mxGeometry>
        </mxCell>
        <mxCell id="7BMwBDlI-2P34CNt6knJ-26" value="Digit" style="edgeLabel;html=1;align=center;verticalAlign=middle;resizable=0;points=[];" parent="7BMwBDlI-2P34CNt6knJ-9" vertex="1" connectable="0">
          <mxGeometry x="0.1796" relative="1" as="geometry">
            <mxPoint x="5" as="offset" />
          </mxGeometry>
        </mxCell>
        <mxCell id="7BMwBDlI-2P34CNt6knJ-13" style="edgeStyle=orthogonalEdgeStyle;rounded=0;orthogonalLoop=1;jettySize=auto;html=1;entryX=1;entryY=0.5;entryDx=0;entryDy=0;" parent="1" source="7BMwBDlI-2P34CNt6knJ-1" target="7BMwBDlI-2P34CNt6knJ-1" edge="1">
          <mxGeometry relative="1" as="geometry">
            <Array as="points">
              <mxPoint x="70" y="300" />
              <mxPoint x="360" y="300" />
              <mxPoint x="360" y="65" />
            </Array>
          </mxGeometry>
        </mxCell>
        <mxCell id="7BMwBDlI-2P34CNt6knJ-32" value="WhiteSpace" style="edgeLabel;html=1;align=center;verticalAlign=middle;resizable=0;points=[];" parent="7BMwBDlI-2P34CNt6knJ-13" vertex="1" connectable="0">
          <mxGeometry x="-0.5284" y="2" relative="1" as="geometry">
            <mxPoint x="22" as="offset" />
          </mxGeometry>
        </mxCell>
        <mxCell id="7BMwBDlI-2P34CNt6knJ-30" style="edgeStyle=orthogonalEdgeStyle;rounded=0;orthogonalLoop=1;jettySize=auto;html=1;exitX=1;exitY=0.5;exitDx=0;exitDy=0;" parent="1" source="7BMwBDlI-2P34CNt6knJ-14" edge="1">
          <mxGeometry relative="1" as="geometry">
            <mxPoint x="360" y="139.85714285714283" as="targetPoint" />
          </mxGeometry>
        </mxCell>
        <mxCell id="7BMwBDlI-2P34CNt6knJ-14" value="OUT" style="ellipse;whiteSpace=wrap;html=1;" parent="1" vertex="1">
          <mxGeometry x="260" y="120" width="60" height="40" as="geometry" />
        </mxCell>
        <mxCell id="7BMwBDlI-2P34CNt6knJ-31" style="edgeStyle=orthogonalEdgeStyle;rounded=0;orthogonalLoop=1;jettySize=auto;html=1;exitX=1;exitY=0.5;exitDx=0;exitDy=0;" parent="1" source="7BMwBDlI-2P34CNt6knJ-17" edge="1">
          <mxGeometry relative="1" as="geometry">
            <mxPoint x="360" y="230.1428571428571" as="targetPoint" />
          </mxGeometry>
        </mxCell>
        <mxCell id="7BMwBDlI-2P34CNt6knJ-17" value="OUT" style="ellipse;whiteSpace=wrap;html=1;" parent="1" vertex="1">
          <mxGeometry x="260" y="209.97" width="60" height="40" as="geometry" />
        </mxCell>
        <mxCell id="7BMwBDlI-2P34CNt6knJ-18" style="edgeStyle=orthogonalEdgeStyle;rounded=0;orthogonalLoop=1;jettySize=auto;html=1;entryX=1;entryY=0.5;entryDx=0;entryDy=0;" parent="1" source="7BMwBDlI-2P34CNt6knJ-5" target="7BMwBDlI-2P34CNt6knJ-5" edge="1">
          <mxGeometry relative="1" as="geometry" />
        </mxCell>
        <mxCell id="7BMwBDlI-2P34CNt6knJ-24" value="Digit, BigLetter" style="edgeLabel;html=1;align=center;verticalAlign=middle;resizable=0;points=[];" parent="7BMwBDlI-2P34CNt6knJ-18" vertex="1" connectable="0">
          <mxGeometry x="-0.511" y="-2" relative="1" as="geometry">
            <mxPoint as="offset" />
          </mxGeometry>
        </mxCell>
        <mxCell id="7BMwBDlI-2P34CNt6knJ-20" style="edgeStyle=orthogonalEdgeStyle;rounded=0;orthogonalLoop=1;jettySize=auto;html=1;entryX=1;entryY=0.5;entryDx=0;entryDy=0;" parent="1" source="7BMwBDlI-2P34CNt6knJ-3" target="7BMwBDlI-2P34CNt6knJ-3" edge="1">
          <mxGeometry relative="1" as="geometry" />
        </mxCell>
        <mxCell id="7BMwBDlI-2P34CNt6knJ-25" value="Digit" style="edgeLabel;html=1;align=center;verticalAlign=middle;resizable=0;points=[];" parent="7BMwBDlI-2P34CNt6knJ-20" vertex="1" connectable="0">
          <mxGeometry x="-0.5458" y="1" relative="1" as="geometry">
            <mxPoint as="offset" />
          </mxGeometry>
        </mxCell>
        <mxCell id="7BMwBDlI-2P34CNt6knJ-41" style="edgeStyle=orthogonalEdgeStyle;rounded=0;orthogonalLoop=1;jettySize=auto;html=1;exitX=1;exitY=0.5;exitDx=0;exitDy=0;entryX=0;entryY=0.5;entryDx=0;entryDy=0;" parent="1" source="7BMwBDlI-2P34CNt6knJ-36" target="7BMwBDlI-2P34CNt6knJ-40" edge="1">
          <mxGeometry relative="1" as="geometry" />
        </mxCell>
        <mxCell id="7BMwBDlI-2P34CNt6knJ-36" value="OUT" style="ellipse;whiteSpace=wrap;html=1;" parent="1" vertex="1">
          <mxGeometry x="190" y="360" width="60" height="40" as="geometry" />
        </mxCell>
        <mxCell id="7BMwBDlI-2P34CNt6knJ-42" style="edgeStyle=orthogonalEdgeStyle;rounded=0;orthogonalLoop=1;jettySize=auto;html=1;exitX=1;exitY=0.5;exitDx=0;exitDy=0;" parent="1" source="7BMwBDlI-2P34CNt6knJ-40" edge="1">
          <mxGeometry relative="1" as="geometry">
            <mxPoint x="360" y="300" as="targetPoint" />
          </mxGeometry>
        </mxCell>
        <mxCell id="7BMwBDlI-2P34CNt6knJ-40" value="INP" style="ellipse;whiteSpace=wrap;html=1;" parent="1" vertex="1">
          <mxGeometry x="280" y="360" width="60" height="40" as="geometry" />
        </mxCell>
        <mxCell id="7BMwBDlI-2P34CNt6knJ-48" style="edgeStyle=orthogonalEdgeStyle;rounded=0;orthogonalLoop=1;jettySize=auto;html=1;exitX=1;exitY=0.5;exitDx=0;exitDy=0;" parent="1" source="7BMwBDlI-2P34CNt6knJ-45" edge="1">
          <mxGeometry relative="1" as="geometry">
            <mxPoint x="360" y="380" as="targetPoint" />
          </mxGeometry>
        </mxCell>
        <mxCell id="7BMwBDlI-2P34CNt6knJ-45" value="ERR" style="ellipse;whiteSpace=wrap;html=1;" parent="1" vertex="1">
          <mxGeometry x="180" y="440" width="60" height="40" as="geometry" />
        </mxCell>
        <mxCell id="7BMwBDlI-2P34CNt6knJ-49" value="EXIT" style="ellipse;whiteSpace=wrap;html=1;" parent="1" vertex="1">
          <mxGeometry x="180" y="520" width="60" height="40" as="geometry" />
        </mxCell>
        <mxCell id="7BMwBDlI-2P34CNt6knJ-102" style="edgeStyle=orthogonalEdgeStyle;rounded=0;orthogonalLoop=1;jettySize=auto;html=1;entryX=1;entryY=0.5;entryDx=0;entryDy=0;" parent="1" source="7BMwBDlI-2P34CNt6knJ-54" target="7BMwBDlI-2P34CNt6knJ-1" edge="1">
          <mxGeometry relative="1" as="geometry">
            <Array as="points">
              <mxPoint x="920" y="140" />
              <mxPoint x="920" y="65" />
            </Array>
          </mxGeometry>
        </mxCell>
        <mxCell id="7BMwBDlI-2P34CNt6knJ-54" value="INP" style="ellipse;whiteSpace=wrap;html=1;" parent="1" vertex="1">
          <mxGeometry x="840" y="120" width="60" height="40" as="geometry" />
        </mxCell>
        <mxCell id="7BMwBDlI-2P34CNt6knJ-66" style="edgeStyle=orthogonalEdgeStyle;rounded=0;orthogonalLoop=1;jettySize=auto;html=1;exitX=1;exitY=0.5;exitDx=0;exitDy=0;entryX=0;entryY=0.5;entryDx=0;entryDy=0;" parent="1" source="7BMwBDlI-2P34CNt6knJ-56" target="7BMwBDlI-2P34CNt6knJ-64" edge="1">
          <mxGeometry relative="1" as="geometry" />
        </mxCell>
        <mxCell id="7BMwBDlI-2P34CNt6knJ-67" value="&#39;*&#39;" style="edgeLabel;html=1;align=center;verticalAlign=middle;resizable=0;points=[];" parent="7BMwBDlI-2P34CNt6knJ-66" vertex="1" connectable="0">
          <mxGeometry x="-0.2079" relative="1" as="geometry">
            <mxPoint as="offset" />
          </mxGeometry>
        </mxCell>
        <mxCell id="7BMwBDlI-2P34CNt6knJ-84" style="edgeStyle=orthogonalEdgeStyle;rounded=0;orthogonalLoop=1;jettySize=auto;html=1;entryX=0;entryY=0.5;entryDx=0;entryDy=0;" parent="1" source="7BMwBDlI-2P34CNt6knJ-56" target="7BMwBDlI-2P34CNt6knJ-78" edge="1">
          <mxGeometry relative="1" as="geometry" />
        </mxCell>
        <mxCell id="7BMwBDlI-2P34CNt6knJ-86" value="eof" style="edgeLabel;html=1;align=center;verticalAlign=middle;resizable=0;points=[];" parent="7BMwBDlI-2P34CNt6knJ-84" vertex="1" connectable="0">
          <mxGeometry x="0.0943" relative="1" as="geometry">
            <mxPoint as="offset" />
          </mxGeometry>
        </mxCell>
        <mxCell id="7BMwBDlI-2P34CNt6knJ-56" value="COM" style="ellipse;whiteSpace=wrap;html=1;" parent="1" vertex="1">
          <mxGeometry x="547.5" y="120" width="60" height="40" as="geometry" />
        </mxCell>
        <mxCell id="7BMwBDlI-2P34CNt6knJ-65" style="edgeStyle=orthogonalEdgeStyle;rounded=0;orthogonalLoop=1;jettySize=auto;html=1;exitX=1;exitY=0.5;exitDx=0;exitDy=0;" parent="1" source="7BMwBDlI-2P34CNt6knJ-57" target="7BMwBDlI-2P34CNt6knJ-63" edge="1">
          <mxGeometry relative="1" as="geometry" />
        </mxCell>
        <mxCell id="7BMwBDlI-2P34CNt6knJ-68" value="&#39;*&#39;" style="edgeLabel;html=1;align=center;verticalAlign=middle;resizable=0;points=[];" parent="7BMwBDlI-2P34CNt6knJ-65" vertex="1" connectable="0">
          <mxGeometry x="-0.1094" relative="1" as="geometry">
            <mxPoint as="offset" />
          </mxGeometry>
        </mxCell>
        <mxCell id="7BMwBDlI-2P34CNt6knJ-90" style="edgeStyle=orthogonalEdgeStyle;rounded=0;orthogonalLoop=1;jettySize=auto;html=1;exitX=1;exitY=0.5;exitDx=0;exitDy=0;entryX=0;entryY=0.5;entryDx=0;entryDy=0;" parent="1" source="7BMwBDlI-2P34CNt6knJ-57" target="7BMwBDlI-2P34CNt6knJ-81" edge="1">
          <mxGeometry relative="1" as="geometry" />
        </mxCell>
        <mxCell id="7BMwBDlI-2P34CNt6knJ-92" value="eof" style="edgeLabel;html=1;align=center;verticalAlign=middle;resizable=0;points=[];" parent="7BMwBDlI-2P34CNt6knJ-90" vertex="1" connectable="0">
          <mxGeometry x="0.0133" relative="1" as="geometry">
            <mxPoint as="offset" />
          </mxGeometry>
        </mxCell>
        <mxCell id="7BMwBDlI-2P34CNt6knJ-57" value="AI" style="ellipse;whiteSpace=wrap;html=1;" parent="1" vertex="1">
          <mxGeometry x="547.5" y="320" width="60" height="40" as="geometry" />
        </mxCell>
        <mxCell id="7BMwBDlI-2P34CNt6knJ-76" style="edgeStyle=orthogonalEdgeStyle;rounded=0;orthogonalLoop=1;jettySize=auto;html=1;entryX=0.5;entryY=0;entryDx=0;entryDy=0;" parent="1" source="7BMwBDlI-2P34CNt6knJ-63" target="7BMwBDlI-2P34CNt6knJ-57" edge="1">
          <mxGeometry relative="1" as="geometry">
            <Array as="points">
              <mxPoint x="777.5" y="300" />
              <mxPoint x="577.5" y="300" />
            </Array>
          </mxGeometry>
        </mxCell>
        <mxCell id="7BMwBDlI-2P34CNt6knJ-77" value="Other" style="edgeLabel;html=1;align=center;verticalAlign=middle;resizable=0;points=[];" parent="7BMwBDlI-2P34CNt6knJ-76" vertex="1" connectable="0">
          <mxGeometry x="0.0351" y="-2" relative="1" as="geometry">
            <mxPoint as="offset" />
          </mxGeometry>
        </mxCell>
        <mxCell id="7BMwBDlI-2P34CNt6knJ-91" style="edgeStyle=orthogonalEdgeStyle;rounded=0;orthogonalLoop=1;jettySize=auto;html=1;exitX=0.5;exitY=1;exitDx=0;exitDy=0;entryX=0.5;entryY=0;entryDx=0;entryDy=0;" parent="1" source="7BMwBDlI-2P34CNt6knJ-63" target="7BMwBDlI-2P34CNt6knJ-81" edge="1">
          <mxGeometry relative="1" as="geometry" />
        </mxCell>
        <mxCell id="7BMwBDlI-2P34CNt6knJ-93" value="eof" style="edgeLabel;html=1;align=center;verticalAlign=middle;resizable=0;points=[];" parent="7BMwBDlI-2P34CNt6knJ-91" vertex="1" connectable="0">
          <mxGeometry x="-0.0228" relative="1" as="geometry">
            <mxPoint as="offset" />
          </mxGeometry>
        </mxCell>
        <mxCell id="7BMwBDlI-2P34CNt6knJ-99" style="edgeStyle=orthogonalEdgeStyle;rounded=0;orthogonalLoop=1;jettySize=auto;html=1;exitX=1;exitY=0.5;exitDx=0;exitDy=0;entryX=0;entryY=0.5;entryDx=0;entryDy=0;" parent="1" source="7BMwBDlI-2P34CNt6knJ-63" target="7BMwBDlI-2P34CNt6knJ-94" edge="1">
          <mxGeometry relative="1" as="geometry" />
        </mxCell>
        <mxCell id="7BMwBDlI-2P34CNt6knJ-104" value="&#39;)&#39;" style="edgeLabel;html=1;align=center;verticalAlign=middle;resizable=0;points=[];" parent="7BMwBDlI-2P34CNt6knJ-99" vertex="1" connectable="0">
          <mxGeometry x="-0.2378" relative="1" as="geometry">
            <mxPoint as="offset" />
          </mxGeometry>
        </mxCell>
        <mxCell id="7BMwBDlI-2P34CNt6knJ-63" value="EAI" style="ellipse;whiteSpace=wrap;html=1;" parent="1" vertex="1">
          <mxGeometry x="747.5" y="320" width="60" height="40" as="geometry" />
        </mxCell>
        <mxCell id="7BMwBDlI-2P34CNt6knJ-74" style="edgeStyle=orthogonalEdgeStyle;rounded=0;orthogonalLoop=1;jettySize=auto;html=1;entryX=0.5;entryY=0;entryDx=0;entryDy=0;" parent="1" source="7BMwBDlI-2P34CNt6knJ-64" target="7BMwBDlI-2P34CNt6knJ-56" edge="1">
          <mxGeometry relative="1" as="geometry">
            <Array as="points">
              <mxPoint x="777.5" y="100" />
              <mxPoint x="577.5" y="100" />
            </Array>
          </mxGeometry>
        </mxCell>
        <mxCell id="7BMwBDlI-2P34CNt6knJ-75" value="Other" style="edgeLabel;html=1;align=center;verticalAlign=middle;resizable=0;points=[];" parent="7BMwBDlI-2P34CNt6knJ-74" vertex="1" connectable="0">
          <mxGeometry x="0.0753" y="1" relative="1" as="geometry">
            <mxPoint as="offset" />
          </mxGeometry>
        </mxCell>
        <mxCell id="7BMwBDlI-2P34CNt6knJ-85" style="edgeStyle=orthogonalEdgeStyle;rounded=0;orthogonalLoop=1;jettySize=auto;html=1;exitX=0.5;exitY=1;exitDx=0;exitDy=0;" parent="1" source="7BMwBDlI-2P34CNt6knJ-64" target="7BMwBDlI-2P34CNt6knJ-78" edge="1">
          <mxGeometry relative="1" as="geometry" />
        </mxCell>
        <mxCell id="7BMwBDlI-2P34CNt6knJ-87" value="eof" style="edgeLabel;html=1;align=center;verticalAlign=middle;resizable=0;points=[];" parent="7BMwBDlI-2P34CNt6knJ-85" vertex="1" connectable="0">
          <mxGeometry x="0.0158" relative="1" as="geometry">
            <mxPoint as="offset" />
          </mxGeometry>
        </mxCell>
        <mxCell id="7BMwBDlI-2P34CNt6knJ-98" style="edgeStyle=orthogonalEdgeStyle;rounded=0;orthogonalLoop=1;jettySize=auto;html=1;exitX=1;exitY=0.5;exitDx=0;exitDy=0;entryX=0;entryY=0.5;entryDx=0;entryDy=0;" parent="1" source="7BMwBDlI-2P34CNt6knJ-64" target="7BMwBDlI-2P34CNt6knJ-54" edge="1">
          <mxGeometry relative="1" as="geometry">
            <Array as="points">
              <mxPoint x="820" y="140" />
              <mxPoint x="820" y="140" />
            </Array>
          </mxGeometry>
        </mxCell>
        <mxCell id="7BMwBDlI-2P34CNt6knJ-103" value="&#39;)&#39;" style="edgeLabel;html=1;align=center;verticalAlign=middle;resizable=0;points=[];" parent="7BMwBDlI-2P34CNt6knJ-98" vertex="1" connectable="0">
          <mxGeometry x="-0.1977" y="3" relative="1" as="geometry">
            <mxPoint as="offset" />
          </mxGeometry>
        </mxCell>
        <mxCell id="7BMwBDlI-2P34CNt6knJ-64" value="ECOM" style="ellipse;whiteSpace=wrap;html=1;" parent="1" vertex="1">
          <mxGeometry x="747.5" y="120" width="60" height="40" as="geometry" />
        </mxCell>
        <mxCell id="7BMwBDlI-2P34CNt6knJ-69" style="edgeStyle=orthogonalEdgeStyle;rounded=0;orthogonalLoop=1;jettySize=auto;html=1;entryX=0.5;entryY=1;entryDx=0;entryDy=0;exitX=1;exitY=0.5;exitDx=0;exitDy=0;" parent="1" source="7BMwBDlI-2P34CNt6knJ-56" target="7BMwBDlI-2P34CNt6knJ-56" edge="1">
          <mxGeometry relative="1" as="geometry">
            <Array as="points">
              <mxPoint x="607.5" y="190" />
              <mxPoint x="577.5" y="190" />
            </Array>
          </mxGeometry>
        </mxCell>
        <mxCell id="7BMwBDlI-2P34CNt6knJ-70" style="edgeStyle=orthogonalEdgeStyle;rounded=0;orthogonalLoop=1;jettySize=auto;html=1;entryX=0.5;entryY=1;entryDx=0;entryDy=0;exitX=1;exitY=0.5;exitDx=0;exitDy=0;" parent="1" source="7BMwBDlI-2P34CNt6knJ-56" target="7BMwBDlI-2P34CNt6knJ-56" edge="1">
          <mxGeometry relative="1" as="geometry">
            <mxPoint x="607.5" y="140" as="sourcePoint" />
            <mxPoint x="577.5" y="160" as="targetPoint" />
            <Array as="points">
              <mxPoint x="607.5" y="190" />
              <mxPoint x="577.5" y="190" />
            </Array>
          </mxGeometry>
        </mxCell>
        <mxCell id="7BMwBDlI-2P34CNt6knJ-72" value="Other" style="edgeLabel;html=1;align=center;verticalAlign=middle;resizable=0;points=[];" parent="7BMwBDlI-2P34CNt6knJ-70" vertex="1" connectable="0">
          <mxGeometry x="0.3429" y="-1" relative="1" as="geometry">
            <mxPoint as="offset" />
          </mxGeometry>
        </mxCell>
        <mxCell id="7BMwBDlI-2P34CNt6knJ-71" style="edgeStyle=orthogonalEdgeStyle;rounded=0;orthogonalLoop=1;jettySize=auto;html=1;entryX=0.5;entryY=1;entryDx=0;entryDy=0;exitX=1;exitY=0.5;exitDx=0;exitDy=0;" parent="1" source="7BMwBDlI-2P34CNt6knJ-57" target="7BMwBDlI-2P34CNt6knJ-57" edge="1">
          <mxGeometry relative="1" as="geometry">
            <mxPoint x="607.5" y="350" as="sourcePoint" />
            <mxPoint x="577.5" y="370" as="targetPoint" />
            <Array as="points">
              <mxPoint x="607.5" y="390" />
              <mxPoint x="577.5" y="390" />
            </Array>
          </mxGeometry>
        </mxCell>
        <mxCell id="7BMwBDlI-2P34CNt6knJ-73" value="Other" style="edgeLabel;html=1;align=center;verticalAlign=middle;resizable=0;points=[];" parent="7BMwBDlI-2P34CNt6knJ-71" vertex="1" connectable="0">
          <mxGeometry x="0.4683" relative="1" as="geometry">
            <mxPoint as="offset" />
          </mxGeometry>
        </mxCell>
        <mxCell id="7BMwBDlI-2P34CNt6knJ-88" style="edgeStyle=orthogonalEdgeStyle;rounded=0;orthogonalLoop=1;jettySize=auto;html=1;exitX=1;exitY=0.5;exitDx=0;exitDy=0;entryX=0;entryY=0.5;entryDx=0;entryDy=0;" parent="1" source="7BMwBDlI-2P34CNt6knJ-78" target="7BMwBDlI-2P34CNt6knJ-82" edge="1">
          <mxGeometry relative="1" as="geometry" />
        </mxCell>
        <mxCell id="7BMwBDlI-2P34CNt6knJ-78" value="ERR" style="ellipse;whiteSpace=wrap;html=1;" parent="1" vertex="1">
          <mxGeometry x="647.5" y="200" width="60" height="40" as="geometry" />
        </mxCell>
        <mxCell id="7BMwBDlI-2P34CNt6knJ-89" style="edgeStyle=orthogonalEdgeStyle;rounded=0;orthogonalLoop=1;jettySize=auto;html=1;exitX=1;exitY=0.5;exitDx=0;exitDy=0;entryX=0;entryY=0.5;entryDx=0;entryDy=0;" parent="1" source="7BMwBDlI-2P34CNt6knJ-81" target="7BMwBDlI-2P34CNt6knJ-83" edge="1">
          <mxGeometry relative="1" as="geometry" />
        </mxCell>
        <mxCell id="7BMwBDlI-2P34CNt6knJ-81" value="ERR" style="ellipse;whiteSpace=wrap;html=1;" parent="1" vertex="1">
          <mxGeometry x="657.5" y="400" width="60" height="40" as="geometry" />
        </mxCell>
        <mxCell id="7BMwBDlI-2P34CNt6knJ-82" value="EXIT" style="ellipse;whiteSpace=wrap;html=1;" parent="1" vertex="1">
          <mxGeometry x="747.5" y="200" width="60" height="40" as="geometry" />
        </mxCell>
        <mxCell id="7BMwBDlI-2P34CNt6knJ-83" value="EXIT" style="ellipse;whiteSpace=wrap;html=1;" parent="1" vertex="1">
          <mxGeometry x="747.5" y="400" width="60" height="40" as="geometry" />
        </mxCell>
        <mxCell id="7BMwBDlI-2P34CNt6knJ-100" style="edgeStyle=orthogonalEdgeStyle;rounded=0;orthogonalLoop=1;jettySize=auto;html=1;entryX=0.5;entryY=1;entryDx=0;entryDy=0;exitX=1;exitY=0.5;exitDx=0;exitDy=0;" parent="1" source="7BMwBDlI-2P34CNt6knJ-94" target="7BMwBDlI-2P34CNt6knJ-97" edge="1">
          <mxGeometry relative="1" as="geometry" />
        </mxCell>
        <mxCell id="7BMwBDlI-2P34CNt6knJ-94" value="OUT" style="ellipse;whiteSpace=wrap;html=1;" parent="1" vertex="1">
          <mxGeometry x="840" y="320" width="60" height="40" as="geometry" />
        </mxCell>
        <mxCell id="7BMwBDlI-2P34CNt6knJ-101" style="edgeStyle=orthogonalEdgeStyle;rounded=0;orthogonalLoop=1;jettySize=auto;html=1;exitX=0.5;exitY=0;exitDx=0;exitDy=0;entryX=1;entryY=0.5;entryDx=0;entryDy=0;" parent="1" source="7BMwBDlI-2P34CNt6knJ-97" target="7BMwBDlI-2P34CNt6knJ-1" edge="1">
          <mxGeometry relative="1" as="geometry" />
        </mxCell>
        <mxCell id="7BMwBDlI-2P34CNt6knJ-97" value="INP" style="ellipse;whiteSpace=wrap;html=1;" parent="1" vertex="1">
          <mxGeometry x="900" y="240" width="60" height="40" as="geometry" />
        </mxCell>
        <mxCell id="7BMwBDlI-2P34CNt6knJ-109" style="edgeStyle=orthogonalEdgeStyle;rounded=0;orthogonalLoop=1;jettySize=auto;html=1;entryX=0.5;entryY=0;entryDx=0;entryDy=0;" parent="1" source="7BMwBDlI-2P34CNt6knJ-105" target="7BMwBDlI-2P34CNt6knJ-1" edge="1">
          <mxGeometry relative="1" as="geometry" />
        </mxCell>
        <mxCell id="7BMwBDlI-2P34CNt6knJ-105" value="INP" style="ellipse;whiteSpace=wrap;html=1;" parent="1" vertex="1">
          <mxGeometry x="40" y="-10" width="60" height="40" as="geometry" />
        </mxCell>
        <mxCell id="7BMwBDlI-2P34CNt6knJ-108" style="edgeStyle=orthogonalEdgeStyle;rounded=0;orthogonalLoop=1;jettySize=auto;html=1;entryX=0.5;entryY=0;entryDx=0;entryDy=0;" parent="1" source="7BMwBDlI-2P34CNt6knJ-106" target="7BMwBDlI-2P34CNt6knJ-105" edge="1">
          <mxGeometry relative="1" as="geometry" />
        </mxCell>
        <mxCell id="7BMwBDlI-2P34CNt6knJ-106" value="S" style="ellipse;whiteSpace=wrap;html=1;" parent="1" vertex="1">
          <mxGeometry x="40" y="-80" width="60" height="40" as="geometry" />
        </mxCell>
      </root>
    </mxGraphModel>
  </diagram>
  <diagram name="Copy of Page-1" id="yhwSL9QV5SWfcdSPI5fA">
    <mxGraphModel grid="1" page="1" gridSize="10" guides="1" tooltips="1" connect="1" arrows="1" fold="1" pageScale="1" pageWidth="1100" pageHeight="850" math="0" shadow="0">
      <root>
        <mxCell id="1KX1HAxKgaJgBRTSH_9A-0" />
        <mxCell id="1KX1HAxKgaJgBRTSH_9A-1" parent="1KX1HAxKgaJgBRTSH_9A-0" />
      </root>
    </mxGraphModel>
  </diagram>
</mxfile>
